<svg xmlns="http://www.w3.org/2000/svg" xmlns:xlink="http://www.w3.org/1999/xlink" version="1.1" x="0px" y="0px" viewBox="0 0 100 125" style="enable-background:new 0 0 100 100;" xml:space="preserve"><g><path d="M85.355,14.645c-19.526-19.525-51.184-19.525-70.71,0c-19.526,19.526-19.526,51.186,0,70.711s51.184,19.525,70.71,0   S104.882,34.171,85.355,14.645z M19,70.006c-9.242-14.291-7.606-33.571,4.915-46.091c12.52-12.52,31.8-14.157,46.091-4.915   L19,70.006z M29.995,81L81,29.994c9.242,14.291,7.605,33.571-4.914,46.092C63.564,88.605,44.285,90.243,29.995,81z"/></g><text x="0" y="115" fill="#000000" font-size="5px" font-weight="bold" font-family="'Helvetica Neue', Helvetica, Arial-Unicode, Arial, Sans-serif">Created by b farias</text><text x="0" y="120" fill="#000000" font-size="5px" font-weight="bold" font-family="'Helvetica Neue', Helvetica, Arial-Unicode, Arial, Sans-serif">from the Noun Project</text></svg>