<?xml version="1.0" encoding="UTF-8" standalone="no"?>
<!DOCTYPE svg PUBLIC "-//W3C//DTD SVG 1.1//EN"
 "http://www.w3.org/Graphics/SVG/1.1/DTD/svg11.dtd">
<!-- Generated by graphviz version 8.0.5 (20230430.1635)
 -->
<!-- Title: P Pages: 1 -->
<svg width="905pt" height="398pt"
 viewBox="0.00 0.00 904.52 398.00" xmlns="http://www.w3.org/2000/svg" xmlns:xlink="http://www.w3.org/1999/xlink">
<g id="graph0" class="graph" transform="scale(1 1) rotate(0) translate(4 394)">
<title>P</title>
<polygon fill="white" stroke="none" points="-4,4 -4,-394 900.52,-394 900.52,4 -4,4"/>
<!-- dataclass -->
<g id="node1" class="node">
<title>dataclass</title>
<ellipse fill="none" stroke="black" cx="577.02" cy="-195" rx="44.19" ry="18"/>
<text text-anchor="middle" x="577.02" y="-189.95" font-family="Times,serif" font-size="14.00">dataclass</text>
</g>
<!-- DDL -->
<g id="node2" class="node">
<title>DDL</title>
<ellipse fill="none" stroke="black" cx="424.02" cy="-106.5" rx="29.86" ry="18"/>
<text text-anchor="middle" x="424.02" y="-101.45" font-family="Times,serif" font-size="14.00">DDL</text>
</g>
<!-- dataclass&#45;&gt;DDL -->
<g id="edge1" class="edge">
<title>dataclass&#45;&gt;DDL</title>
<path fill="none" stroke="black" d="M538.05,-185.96C500.46,-177.89 448.21,-165.72 441.02,-159 434.35,-152.76 430.3,-143.85 427.83,-135.19"/>
<polygon fill="black" stroke="black" points="431.06,-134.59 425.48,-125.58 424.23,-136.1 431.06,-134.59"/>
<text text-anchor="middle" x="498.02" y="-145.7" font-family="Times,serif" font-size="14.00">simple&#45;ddl&#45;generator</text>
</g>
<!-- DDL&#45;&gt;dataclass -->
<g id="edge8" class="edge">
<title>DDL&#45;&gt;dataclass</title>
<path fill="none" stroke="black" d="M454.01,-108.21C483.06,-110.42 526.74,-117.99 555.02,-142.5 562.23,-148.75 567.15,-157.77 570.47,-166.52"/>
<polygon fill="black" stroke="black" points="567.39,-167.4 573.77,-175.86 574.06,-165.27 567.39,-167.4"/>
<text text-anchor="middle" x="599.27" y="-145.7" font-family="Times,serif" font-size="14.00">omymodels</text>
</g>
<!-- DDL&#45;&gt;DDL -->
<g id="edge3" class="edge">
<title>DDL&#45;&gt;DDL</title>
<path fill="none" stroke="black" d="M451.08,-114.72C462.34,-115.29 471.88,-112.55 471.88,-106.5 471.88,-102.53 467.77,-99.98 461.76,-98.86"/>
<polygon fill="black" stroke="black" points="462.26,-95.33 452.08,-98.28 461.88,-102.32 462.26,-95.33"/>
<text text-anchor="middle" x="528.88" y="-101.45" font-family="Times,serif" font-size="14.00">simple&#45;ddl&#45;generator</text>
</g>
<!-- ORM -->
<g id="node7" class="node">
<title>ORM</title>
<ellipse fill="none" stroke="black" cx="447.02" cy="-18" rx="32.41" ry="18"/>
<text text-anchor="middle" x="447.02" y="-12.95" font-family="Times,serif" font-size="14.00">ORM</text>
</g>
<!-- DDL&#45;&gt;ORM -->
<g id="edge9" class="edge">
<title>DDL&#45;&gt;ORM</title>
<path fill="none" stroke="black" d="M409.79,-90.5C401.77,-80.15 394.47,-66.14 400.52,-54 403.8,-47.44 408.95,-41.79 414.66,-37.05"/>
<polygon fill="black" stroke="black" points="416.24,-39.5 422.25,-30.78 412.11,-33.85 416.24,-39.5"/>
<text text-anchor="middle" x="433.27" y="-57.2" font-family="Times,serif" font-size="14.00">omymodels</text>
</g>
<!-- pydantic -->
<g id="node3" class="node">
<title>pydantic</title>
<ellipse fill="none" stroke="black" cx="108.02" cy="-372" rx="42.65" ry="18"/>
<text text-anchor="middle" x="108.02" y="-366.95" font-family="Times,serif" font-size="14.00">pydantic</text>
</g>
<!-- pydantic&#45;&gt;DDL -->
<g id="edge2" class="edge">
<title>pydantic&#45;&gt;DDL</title>
<path fill="none" stroke="black" d="M84.2,-356.77C46.25,-332.19 -20.91,-279.76 7.02,-231 93.8,-79.56 215.7,-166.85 385.02,-124.5 387.21,-123.95 389.42,-123.3 391.63,-122.56"/>
<polygon fill="black" stroke="black" points="392.69,-125.53 400.79,-118.7 390.2,-118.99 392.69,-125.53"/>
<text text-anchor="middle" x="64.02" y="-234.2" font-family="Times,serif" font-size="14.00">simple&#45;ddl&#45;generator</text>
</g>
<!-- JSONSchema -->
<g id="node6" class="node">
<title>JSONSchema</title>
<ellipse fill="none" stroke="black" cx="358.02" cy="-283.5" rx="62.61" ry="18"/>
<text text-anchor="middle" x="358.02" y="-278.45" font-family="Times,serif" font-size="14.00">JSONSchema</text>
</g>
<!-- pydantic&#45;&gt;JSONSchema -->
<g id="edge14" class="edge">
<title>pydantic&#45;&gt;JSONSchema</title>
<path fill="none" stroke="black" d="M140.2,-359.87C182.92,-345.09 258.78,-318.84 308.75,-301.55"/>
<polygon fill="black" stroke="black" points="309.69,-304.58 318,-298 307.4,-297.97 309.69,-304.58"/>
<text text-anchor="middle" x="293.15" y="-322.7" font-family="Times,serif" font-size="14.00">.schema_json</text>
</g>
<!-- attrs -->
<g id="node4" class="node">
<title>attrs</title>
<ellipse fill="none" stroke="black" cx="349.02" cy="-106.5" rx="27" ry="18"/>
<text text-anchor="middle" x="349.02" y="-101.45" font-family="Times,serif" font-size="14.00">attrs</text>
</g>
<!-- attrs&#45;&gt;ORM -->
<g id="edge10" class="edge">
<title>attrs&#45;&gt;ORM</title>
<path fill="none" stroke="black" d="M368.01,-81.8C375.9,-72.63 385.44,-62.36 395.02,-54 401.6,-48.27 409.15,-42.69 416.43,-37.74"/>
<polygon fill="black" stroke="black" points="364.75,-79.24 361.01,-89.15 370.11,-83.74 364.75,-79.24"/>
<polygon fill="black" stroke="black" points="417.98,-40.26 424.41,-31.83 414.13,-34.41 417.98,-40.26"/>
</g>
<!-- JSON -->
<g id="node5" class="node">
<title>JSON</title>
<ellipse fill="none" stroke="black" cx="535.02" cy="-372" rx="32.93" ry="18"/>
<text text-anchor="middle" x="535.02" y="-366.95" font-family="Times,serif" font-size="14.00">JSON</text>
</g>
<!-- JSON&#45;&gt;dataclass -->
<g id="edge13" class="edge">
<title>JSON&#45;&gt;dataclass</title>
<path fill="none" stroke="black" d="M554.77,-357.45C582.25,-337.24 630.82,-296.3 650.02,-247.5 652.71,-240.68 653.93,-237.21 650.02,-231 643.95,-221.36 634.4,-214.31 624.19,-209.18"/>
<polygon fill="black" stroke="black" points="625.85,-205.65 615.28,-204.83 623.03,-212.06 625.85,-205.65"/>
<text text-anchor="middle" x="713.27" y="-278.45" font-family="Times,serif" font-size="14.00">datamodel&#45;code&#45;generator</text>
</g>
<!-- JSON&#45;&gt;JSONSchema -->
<g id="edge4" class="edge">
<title>JSON&#45;&gt;JSONSchema</title>
<path fill="none" stroke="black" d="M511.15,-359.33C482.38,-345.27 433.57,-321.42 398.8,-304.42"/>
<polygon fill="black" stroke="black" points="400.46,-300.85 389.94,-299.61 397.39,-307.14 400.46,-300.85"/>
<text text-anchor="middle" x="482.15" y="-322.7" font-family="Times,serif" font-size="14.00">genson</text>
</g>
<!-- JSONSchema&#45;&gt;dataclass -->
<g id="edge5" class="edge">
<title>JSONSchema&#45;&gt;dataclass</title>
<path fill="none" stroke="black" d="M395.24,-261.49C402.85,-256.99 410.76,-252.19 418.02,-247.5 428.67,-240.63 429.78,-236.34 441.27,-231 456.69,-223.84 495.71,-214.07 527.98,-206.67"/>
<polygon fill="black" stroke="black" points="393.69,-258.92 386.82,-266.98 397.22,-264.97 393.69,-258.92"/>
<polygon fill="black" stroke="black" points="528.64,-209.89 537.62,-204.26 527.1,-203.06 528.64,-209.89"/>
<text text-anchor="middle" x="463.4" y="-234.2" font-family="Times,serif" font-size="14.00">statham</text>
</g>
<!-- JSONSchema&#45;&gt;dataclass -->
<g id="edge11" class="edge">
<title>JSONSchema&#45;&gt;dataclass</title>
<path fill="none" stroke="black" d="M408.8,-272.57C432.35,-266.92 460.32,-258.71 484.02,-247.5 495.56,-242.05 496.57,-237.55 507.52,-231 517.45,-225.06 528.51,-219.18 538.84,-213.98"/>
<polygon fill="black" stroke="black" points="540.04,-216.79 547.46,-209.22 536.94,-210.52 540.04,-216.79"/>
<text text-anchor="middle" x="579.27" y="-234.2" font-family="Times,serif" font-size="14.00">datamodel&#45;code&#45;generator</text>
</g>
<!-- JSONSchema&#45;&gt;DDL -->
<g id="edge17" class="edge">
<title>JSONSchema&#45;&gt;DDL</title>
<g id="a_edge17"><a xlink:href="https://github.com/better/jsonschema2db" xlink:title="jsonschema2db">
<path fill="none" stroke="black" d="M378.03,-266.35C383.63,-260.9 389.22,-254.43 393.02,-247.5 412.47,-212.04 419.72,-165.22 422.42,-135.72"/>
<polygon fill="black" stroke="black" points="425.97,-136.21 423.27,-125.96 418.99,-135.65 425.97,-136.21"/>
</a>
</g>
<g id="a_edge17&#45;label"><a xlink:href="https://github.com/better/jsonschema2db" xlink:title="jsonschema2db">
<text text-anchor="middle" x="459.02" y="-189.95" font-family="Times,serif" font-size="14.00">jsonschema2db</text>
</a>
</g>
</g>
<!-- JSONSchema&#45;&gt;DDL -->
<g id="edge18" class="edge">
<title>JSONSchema&#45;&gt;DDL</title>
<g id="a_edge18"><a xlink:href="https://github.com/hashhar/jsonschema2sql" xlink:title="jsonschema2sql">
<path fill="none" stroke="black" d="M295.51,-281.56C236.34,-279.19 153.6,-271.52 133.02,-247.5 121.1,-233.57 115.07,-205.13 141.77,-177 217.92,-96.79 279.76,-158.43 385.02,-124.5 387.03,-123.85 389.07,-123.14 391.11,-122.38"/>
<polygon fill="black" stroke="black" points="392.24,-125.31 400.22,-118.34 389.64,-118.81 392.24,-125.31"/>
</a>
</g>
<g id="a_edge18&#45;label"><a xlink:href="https://github.com/hashhar/jsonschema2sql" xlink:title="jsonschema2sql">
<text text-anchor="middle" x="185.15" y="-189.95" font-family="Times,serif" font-size="14.00">jsonschema2sql</text>
</a>
</g>
</g>
<!-- webform -->
<g id="node9" class="node">
<title>webform</title>
<ellipse fill="none" stroke="black" cx="282.02" cy="-195" rx="44.7" ry="18"/>
<text text-anchor="middle" x="282.02" y="-189.95" font-family="Times,serif" font-size="14.00">webform</text>
</g>
<!-- JSONSchema&#45;&gt;webform -->
<g id="edge15" class="edge">
<title>JSONSchema&#45;&gt;webform</title>
<g id="a_edge15"><a xlink:href="https://rjsf-team.github.io/react-jsonschema-form/docs/" xlink:title="react&#45;jsonschema&#45;webform">
<path fill="none" stroke="black" d="M295.41,-281.21C238.08,-278.54 159.25,-270.63 139.52,-247.5 134.77,-241.92 135,-236.77 139.52,-231 142.52,-227.18 192.53,-215.49 232.46,-206.66"/>
<polygon fill="black" stroke="black" points="233.13,-209.88 242.15,-204.31 231.63,-203.04 233.13,-209.88"/>
</a>
</g>
<g id="a_edge15&#45;label"><a xlink:href="https://rjsf-team.github.io/react-jsonschema-form/docs/" xlink:title="react&#45;jsonschema&#45;webform">
<text text-anchor="middle" x="214.27" y="-234.2" font-family="Times,serif" font-size="14.00">react&#45;jsonschema&#45;webform</text>
</a>
</g>
</g>
<!-- JSONSchema&#45;&gt;webform -->
<g id="edge16" class="edge">
<title>JSONSchema&#45;&gt;webform</title>
<g id="a_edge16"><a xlink:href="https://jsonforms.io/" xlink:title="JSONForms.io">
<path fill="none" stroke="black" d="M333.12,-266.78C325.55,-261.27 317.58,-254.65 311.27,-247.5 304.73,-240.07 298.97,-230.94 294.33,-222.44"/>
<polygon fill="black" stroke="black" points="297.1,-221.19 289.42,-213.9 290.88,-224.39 297.1,-221.19"/>
</a>
</g>
<g id="a_edge16&#45;label"><a xlink:href="https://jsonforms.io/" xlink:title="JSONForms.io">
<text text-anchor="middle" x="352.9" y="-234.2" font-family="Times,serif" font-size="14.00">JSONForms.io</text>
</a>
</g>
</g>
<!-- ORM&#45;&gt;dataclass -->
<g id="edge7" class="edge">
<title>ORM&#45;&gt;dataclass</title>
<g id="a_edge7"><a xlink:href="https://docs.sqlalchemy.org/en/20/orm/dataclasses.html" xlink:title="SQLAlchemy">
<path fill="none" stroke="black" d="M490.46,-20.28C521.18,-23.25 561.75,-31.59 590.02,-54 652.89,-103.83 656,-121.85 635.02,-159 630.96,-166.2 624.75,-172.09 617.89,-176.84"/>
<polygon fill="black" stroke="black" points="490.88,-16.72 480.64,-19.41 490.33,-23.7 490.88,-16.72"/>
<polygon fill="black" stroke="black" points="616.68,-174.08 609.95,-182.26 620.31,-180.06 616.68,-174.08"/>
</a>
</g>
<g id="a_edge7&#45;label"><a xlink:href="https://docs.sqlalchemy.org/en/20/orm/dataclasses.html" xlink:title="SQLAlchemy">
<text text-anchor="middle" x="684.9" y="-101.45" font-family="Times,serif" font-size="14.00">SQLAlchemy</text>
</a>
</g>
</g>
<!-- ORM&#45;&gt;DDL -->
<g id="edge6" class="edge">
<title>ORM&#45;&gt;DDL</title>
<path fill="none" stroke="black" d="M460.82,-34.51C468.26,-44.83 474.83,-58.62 469.02,-70.5 465.75,-77.19 460.52,-82.97 454.75,-87.8"/>
<polygon fill="black" stroke="black" points="453.07,-85.43 447.1,-94.19 457.22,-91.07 453.07,-85.43"/>
<text text-anchor="middle" x="529.02" y="-57.2" font-family="Times,serif" font-size="14.00">simple&#45;ddl&#45;generator</text>
</g>
<!-- dict -->
<g id="node8" class="node">
<title>dict</title>
<ellipse fill="none" stroke="black" cx="852.02" cy="-283.5" rx="27" ry="18"/>
<text text-anchor="middle" x="852.02" y="-278.45" font-family="Times,serif" font-size="14.00">dict</text>
</g>
<!-- dict&#45;&gt;dataclass -->
<g id="edge12" class="edge">
<title>dict&#45;&gt;dataclass</title>
<path fill="none" stroke="black" d="M829.51,-272.93C823.24,-270.39 816.41,-267.74 810.02,-265.5 746.28,-243.15 671.18,-221.58 623.83,-208.55"/>
<polygon fill="black" stroke="black" points="624.86,-204.93 614.29,-205.67 623.01,-211.68 624.86,-204.93"/>
<text text-anchor="middle" x="825.27" y="-234.2" font-family="Times,serif" font-size="14.00">datamodel&#45;code&#45;generator</text>
</g>
</g>
</svg>
